<svg xmlns="http://www.w3.org/2000/svg" style="padding: 20px; margin: 20px;" viewBox="-8 -8 900 900"><defs><style>.cls-1{fill:#ba355e;}</style></defs><title>Asset 12</title><g id="Layer_2" data-name="Layer 2"><g id="Layer_1-2" data-name="Layer 1" stroke="#4d2058" stroke-width="5"><path class="cls-1 RBcFgSGp_0" d="M579.11,373.49l-184.32-1.85a20.18,20.18,0,0,0-19.3,13.73L316.78,560.15c-6.27,18.48-32.39,18.21-38.28-.35L223.33,383.87a20.73,20.73,0,0,0-2.47-5.07,19.87,19.87,0,0,0-16.52-9.09L19.92,367.87C.47,367.75-7.4,342.68,8.51,331.45l150.2-106.88a20.24,20.24,0,0,0,7.58-22.43L111,26.22C105.22,7.66,126.6-7.56,142.23,4.05L290.32,113.92a20.14,20.14,0,0,0,23.63.25L464.15,7.3c15.91-11.32,37,4.29,30.71,22.77l-58.7,174.78a20.07,20.07,0,0,0,7.07,22.52L518,282.9l73.32,54.34C607,348.84,598.65,373.69,579.11,373.49Z"></path></g></g><style data-made-with="vivus-instant">.RBcFgSGp_0{stroke-dasharray:2224 2226;stroke-dashoffset:2225;animation:RBcFgSGp_draw_0 4000ms ease-in-out 0ms infinite,RBcFgSGp_fade 4000ms linear 0ms infinite;}@keyframes RBcFgSGp_draw{100%{stroke-dashoffset:0;}}@keyframes RBcFgSGp_fade{0%{stroke-opacity:1;}95%{stroke-opacity:1;}100%{stroke-opacity:0;}}@keyframes RBcFgSGp_draw_0{20%{stroke-dashoffset: 2225}70%{ stroke-dashoffset: 0;}100%{ stroke-dashoffset: 0;}}</style></svg>